<svg id="Capa_1" enable-background="new 0 0 512 512" height="512" viewBox="0 0 512 512" width="512" xmlns="http://www.w3.org/2000/svg" fill="white" fill-opacity="0.7"><g><path d="m472.436 48.097h-8.532v-8.532c0-12.976-10.557-23.532-23.532-23.532s-23.532 10.557-23.532 23.532v8.532h-297.114c-4.142 0-7.5 3.358-7.5 7.5s3.358 7.5 7.5 7.5h297.113v8.532c0 12.976 10.557 23.532 23.532 23.532s23.532-10.556 23.532-23.532v-8.532h8.532c13.545 0 24.564 11.02 24.564 24.564v26.914l-80.851 31.097c-13.397 5.153-25.167 13.842-34.036 25.13l-74.546 94.876-19.756-4.233c-16.245-3.482-32.954-.549-47.043 8.257l-44.789 27.993-30.639-13.129c-18.956-8.124-40.029-8.61-59.339-1.369l-91 34.125v-229.661c0-13.545 11.02-24.564 24.564-24.564h8.532v8.532c0 12.976 10.557 23.532 23.532 23.532s23.532-10.556 23.532-23.532v-32.065c0-12.976-10.557-23.532-23.532-23.532s-23.531 10.557-23.531 23.532v8.532h-8.532c-21.816.001-39.565 17.749-39.565 39.565v368.742c0 21.816 17.749 39.564 39.564 39.564h432.871c21.816 0 39.564-17.749 39.564-39.564v-368.742c.001-21.816-17.748-39.564-39.563-39.564zm-23.533 23.532c0 4.705-3.828 8.532-8.532 8.532s-8.532-3.827-8.532-8.532v-32.065c0-4.705 3.828-8.532 8.532-8.532s8.532 3.828 8.532 8.532zm-385.806-32.065c0-4.705 3.828-8.532 8.532-8.532s8.532 3.828 8.532 8.532v32.064c0 4.705-3.828 8.532-8.532 8.532s-8.532-3.827-8.532-8.532zm433.903 416.839c0 13.545-11.02 24.564-24.564 24.564h-432.872c-13.544.001-24.564-11.019-24.564-24.564v-27.908l68.623-42.889c3.512-2.195 4.58-6.822 2.385-10.335-2.195-3.512-6.822-4.581-10.335-2.385l-60.673 37.921v-77.464l96.267-36.1c15.674-5.877 32.778-5.483 48.164 1.111l21.056 9.024-16.638 10.399c-3.512 2.195-4.58 6.822-2.385 10.335 1.423 2.276 3.867 3.526 6.367 3.526 1.357 0 2.732-.369 3.968-1.141l76.918-48.074c10.766-6.729 23.533-8.971 35.951-6.31l61.29 13.133c20.384 4.368 41.63-1.536 56.836-15.793l94.206-88.319zm0-291.829-104.465 97.936c-11.622 10.895-27.858 15.405-43.435 12.068l-25.206-5.401 70.014-89.108c7.198-9.161 16.751-16.214 27.625-20.396l75.467-29.027z"/><path d="m161.051 435.961c-13.569.17-28.11.263-38.087.223 5.609-7.376 14.766-19.598 28.771-39.609 6.177-8.825 10.189-17.097 11.925-24.585.057-.246.102-.493.133-.743l.5-3.917c.041-.315.061-.633.061-.951 0-18.42-14.985-33.405-33.405-33.405-15.927 0-29.712 11.33-32.778 26.938-.798 4.064 1.85 8.007 5.914 8.805 4.064.799 8.007-1.849 8.805-5.914 1.688-8.592 9.283-14.829 18.059-14.829 10.002 0 18.167 8.021 18.4 17.968l-.384 3.007c-1.352 5.53-4.553 11.929-9.519 19.024-16.083 22.979-25.685 35.552-30.844 42.307-6.142 8.041-7.995 10.468-6.64 14.875.767 2.494 2.67 4.412 5.221 5.263 1.008.336 2.382.795 21.655.795 7.631 0 18.071-.072 32.4-.252 4.142-.052 7.457-3.452 7.405-7.594s-3.44-7.415-7.592-7.406z"/><path d="m214.639 332.391c-20.278 0-36.776 16.498-36.776 36.775v46.819c0 20.278 16.498 36.776 36.776 36.776s36.775-16.498 36.775-36.776v-46.819c.001-20.278-16.497-36.775-36.775-36.775zm21.776 83.594c0 12.007-9.769 21.776-21.775 21.776-12.007 0-21.776-9.769-21.776-21.776v-46.819c0-12.007 9.769-21.775 21.776-21.775s21.775 9.769 21.775 21.775z"/><path d="m327.02 435.961c-.032 0-.064 0-.096 0-13.569.17-28.11.263-38.087.223 5.609-7.376 14.766-19.598 28.771-39.609 6.177-8.825 10.189-17.097 11.925-24.585.057-.246.102-.493.133-.743l.5-3.917c.041-.315.061-.633.061-.951 0-18.42-14.985-33.405-33.405-33.405-15.927 0-29.712 11.329-32.778 26.938-.798 4.064 1.849 8.007 5.914 8.805 4.063.799 8.006-1.849 8.805-5.914 1.688-8.593 9.283-14.83 18.06-14.83 10.002 0 18.167 8.021 18.4 17.968l-.384 3.007c-1.352 5.53-4.553 11.929-9.519 19.024-16.083 22.979-25.685 35.552-30.844 42.307-6.142 8.041-7.995 10.468-6.64 14.875.767 2.494 2.67 4.412 5.221 5.262 1.008.336 2.384.795 21.657.795 7.631 0 18.069-.072 32.399-.252 4.142-.052 7.457-3.452 7.405-7.594-.052-4.108-3.4-7.404-7.498-7.404z"/><path d="m379.843 332.391c-20.278 0-36.776 16.498-36.776 36.775v46.819c0 20.278 16.498 36.776 36.776 36.776s36.776-16.498 36.776-36.776v-46.819c0-20.278-16.497-36.775-36.776-36.775zm21.776 83.594c0 12.007-9.769 21.776-21.776 21.776s-21.776-9.769-21.776-21.776v-46.819c0-12.007 9.769-21.775 21.776-21.775s21.776 9.769 21.776 21.775z"/><path d="m152.307 175.839c0 21.816 17.749 39.564 39.564 39.564s39.564-17.749 39.564-39.564c0-3.347-.42-6.674-1.248-9.891-1.033-4.011-5.123-6.425-9.134-5.392s-6.425 5.123-5.393 9.133c.514 1.995.774 4.063.774 6.149 0 13.545-11.02 24.564-24.564 24.564s-24.564-11.02-24.564-24.564 11.02-24.564 24.564-24.564c2.096 0 4.176.263 6.182.782 4.007 1.038 8.102-1.371 9.141-5.381 1.038-4.01-1.371-8.102-5.381-9.14-3.233-.837-6.578-1.261-9.941-1.261-21.816 0-39.564 17.748-39.564 39.565z"/><path d="m199.371 111.71v-16.032c0-4.143-3.358-7.5-7.5-7.5s-7.5 3.357-7.5 7.5v16.032c0 4.142 3.358 7.5 7.5 7.5s7.5-3.358 7.5-7.5z"/><path d="m184.371 239.968v16.032c0 4.142 3.358 7.5 7.5 7.5s7.5-3.358 7.5-7.5v-16.032c0-4.142-3.358-7.5-7.5-7.5s-7.5 3.358-7.5 7.5z"/><path d="m115.954 219.669c1.389 2.406 3.91 3.751 6.502 3.751 1.272 0 2.562-.324 3.743-1.006l13.884-8.016c3.587-2.071 4.816-6.658 2.745-10.245-2.072-3.588-6.659-4.816-10.245-2.745l-13.884 8.016c-3.587 2.071-4.816 6.658-2.745 10.245z"/><path d="m247.415 151.275c1.272 0 2.562-.324 3.743-1.006l13.884-8.017c3.587-2.071 4.816-6.658 2.745-10.245s-6.658-4.815-10.245-2.745l-13.884 8.017c-3.587 2.071-4.816 6.658-2.745 10.245 1.389 2.407 3.91 3.751 6.502 3.751z"/><path d="m243.658 214.398 13.884 8.016c1.181.682 2.471 1.006 3.743 1.006 2.592 0 5.113-1.346 6.502-3.751 2.071-3.587.842-8.174-2.745-10.245l-13.884-8.016c-3.588-2.072-8.174-.842-10.245 2.745s-.842 8.174 2.745 10.245z"/><path d="m118.699 142.253 13.884 8.017c1.181.682 2.471 1.006 3.743 1.006 2.592 0 5.113-1.345 6.502-3.751 2.071-3.587.842-8.174-2.745-10.245l-13.884-8.017c-3.587-2.071-8.174-.842-10.245 2.745s-.842 8.174 2.745 10.245z"/></g></svg>